<?xml version="1.0" standalone="no"?>
<!DOCTYPE svg PUBLIC "-//W3C//DTD SVG 20010904//EN"
 "http://www.w3.org/TR/2001/REC-SVG-20010904/DTD/svg10.dtd">
<svg version="1.0" xmlns="http://www.w3.org/2000/svg"
 width="730.000000pt" height="600.000000pt" viewBox="0 0 730.000000 600.000000"
 preserveAspectRatio="xMidYMid meet">
<metadata>
Created by potrace 1.11, written by Peter Selinger 2001-2013
</metadata>
<g transform="translate(0.000000,600.000000) scale(0.100000,-0.100000)"
fill="#000000" stroke="none">
<path d="M0 3405 l0 -2595 650 0 650 0 0 -405 0 -405 160 0 160 0 0 410 c0
226 2 410 3 410 2 0 75 7 163 15 405 39 771 117 1162 247 101 33 185 59 187
56 2 -2 72 -167 155 -368 83 -200 152 -366 155 -368 5 -6 284 109 291 119 2 4
-63 171 -146 370 -82 200 -150 368 -150 373 0 6 49 34 108 61 388 181 837 480
1187 790 l119 106 288 -288 288 -288 112 113 113 112 -283 283 c-155 155 -282
288 -282 294 0 7 39 56 88 110 303 340 574 742 779 1158 41 83 78 149 83 148
5 -2 172 -70 371 -153 199 -82 365 -148 369 -145 15 9 122 287 114 294 -5 4
-171 74 -369 156 -198 81 -362 149 -364 151 -2 2 24 85 57 186 130 391 208
757 247 1162 8 88 15 161 15 163 0 1 185 3 410 3 l410 0 0 160 0 160 -3650 0
-3650 0 0 -2595z m250 1870 l0 -405 -85 0 -85 0 0 405 0 405 85 0 85 0 0 -405z
m5900 382 c0 -12 -9 -101 -20 -197 -86 -760 -345 -1481 -757 -2110 -374 -571
-843 -1041 -1409 -1413 -637 -419 -1330 -670 -2119 -768 -153 -19 -236 -22
-842 -26 l-673 -5 0 2271 0 2271 2910 0 2910 0 0 -23z m-5900 -1602 l0 -485
-85 0 -85 0 0 485 0 485 85 0 85 0 0 -485z m0 -1295 l0 -480 -85 0 -85 0 0
480 0 480 85 0 85 0 0 -480z m0 -1221 l0 -399 -85 0 -85 0 0 403 0 402 85 -3
85 -3 0 -400z"/>
<path d="M2711 5409 c-199 -34 -414 -235 -497 -465 -28 -75 -30 -142 -10 -257
26 -146 1 -152 -125 -30 -116 112 -124 127 -109 207 21 115 -15 214 -110 299
-110 99 -280 123 -405 56 -38 -20 -40 -21 -120 -4 -115 24 -304 17 -395 -16
-92 -32 -163 -104 -180 -181 -15 -66 -1 -142 32 -177 28 -31 49 -23 78 32 30
56 43 67 88 67 71 0 116 -43 237 -225 52 -77 159 -218 239 -314 80 -96 146
-180 146 -187 0 -20 -26 -24 -138 -24 -73 1 -120 6 -147 17 -99 39 -163 24
-267 -60 -117 -96 -249 -313 -300 -492 -32 -114 -32 -306 0 -419 31 -108 98
-235 176 -332 66 -82 114 -127 296 -275 249 -203 370 -331 432 -456 l41 -82 8
-158 c4 -87 8 -161 9 -165 1 -21 19 -3 39 40 55 119 66 260 30 378 -54 175
-140 284 -434 554 -244 224 -384 404 -435 561 -35 107 -33 258 4 384 35 119
76 203 119 252 44 48 192 121 263 129 30 4 138 -6 284 -26 137 -19 283 -33
350 -34 110 -1 118 0 168 28 107 60 187 178 217 322 9 44 14 125 14 224 -1
223 23 309 126 455 62 88 129 145 229 195 82 42 95 45 165 45 71 0 84 -4 174
-47 129 -62 196 -108 286 -193 149 -141 247 -286 400 -588 165 -328 252 -447
371 -505 49 -24 66 -27 155 -27 104 0 212 18 242 41 32 23 -1 38 -100 45 -57
4 -124 17 -176 34 -73 23 -92 34 -137 81 -65 67 -163 260 -223 444 -161 487
-444 771 -831 833 -134 22 -217 27 -279 16z m-984 -251 c53 -25 116 -85 142
-136 37 -72 40 -162 5 -162 -23 0 -64 -46 -64 -74 0 -13 12 -38 26 -55 20 -24
24 -37 19 -61 -14 -66 -131 -187 -223 -231 -39 -19 -44 -20 -66 -6 -13 9 -48
51 -79 94 -30 43 -99 128 -154 188 -191 214 -191 242 -1 109 123 -87 197 -112
249 -84 23 13 55 73 64 121 14 74 -50 162 -117 162 -19 0 -55 -18 -102 -50
-39 -28 -82 -54 -95 -58 -26 -8 -226 64 -272 98 -34 25 -110 33 -149 17 -16
-7 -44 -28 -60 -47 -35 -39 -39 -29 -10 27 11 21 40 53 66 71 113 78 257 94
393 46 95 -34 114 -34 161 4 74 59 175 69 267 27z m457 -694 c25 -10 19 -46
-20 -109 -101 -168 -186 -235 -301 -235 -65 0 -113 23 -113 54 0 20 9 29 45
45 27 12 86 60 148 119 56 54 113 106 127 115 24 17 84 22 114 11z"/>
<path d="M2750 5084 c-135 -36 -245 -153 -322 -341 -31 -75 -32 -84 -38 -273
l-7 -195 -43 -100 c-49 -115 -82 -166 -138 -217 -111 -100 -294 -109 -622 -31
-82 20 -121 24 -178 20 -224 -17 -382 -212 -382 -472 0 -104 21 -190 72 -294
51 -106 171 -234 373 -395 303 -243 391 -357 556 -721 l23 -50 9 91 c11 107
-2 186 -53 328 -53 144 -92 186 -345 376 -124 92 -257 201 -305 250 -134 134
-188 259 -192 443 -2 71 1 88 21 120 32 52 106 115 171 146 49 23 68 25 170
26 112 0 117 -1 185 -35 l70 -35 145 1 c221 1 306 30 415 141 58 59 122 172
150 263 11 35 20 116 25 225 19 393 140 598 338 571 178 -24 377 -234 567
-601 222 -427 313 -524 568 -611 113 -38 186 -41 284 -10 45 15 84 30 87 35 3
4 -38 13 -90 20 -53 7 -117 19 -143 27 -144 42 -367 258 -506 489 -27 44 -78
143 -115 220 -80 168 -156 274 -294 410 -109 108 -181 154 -281 180 -72 18
-103 18 -175 -1z"/>
<path d="M2745 4722 c-62 -42 -114 -103 -140 -166 -31 -73 -9 -87 52 -33 64
56 85 67 133 67 95 0 186 -93 355 -365 186 -299 246 -359 421 -420 63 -22 94
-23 94 -4 0 5 -31 43 -69 85 -94 103 -158 197 -247 366 -151 285 -242 396
-377 463 -42 21 -95 39 -119 42 -38 4 -50 0 -103 -35z"/>
<path d="M2646 4441 c-16 -11 -42 -39 -58 -62 -57 -86 -27 -158 63 -146 68 9
97 -7 204 -112 123 -121 192 -175 270 -212 61 -30 119 -37 130 -18 4 6 -27 43
-68 82 -81 77 -146 159 -220 274 -117 182 -232 252 -321 194z"/>
<path d="M2571 4043 c-5 -10 -25 -49 -46 -88 -100 -191 -183 -248 -420 -290
-137 -25 -134 -23 -100 -52 104 -86 149 -98 249 -63 255 88 440 330 363 478
-20 36 -32 40 -46 15z"/>
<path d="M2706 3819 c-15 -11 -53 -55 -85 -97 -94 -124 -168 -187 -274 -237
-51 -24 -99 -50 -106 -59 -33 -40 40 -82 124 -72 134 15 254 83 315 177 66
103 102 227 81 282 -13 32 -20 33 -55 6z"/>
<path d="M2859 3738 c-14 -26 -5 -118 15 -157 48 -92 432 -344 646 -424 201
-75 369 -90 474 -43 63 28 67 42 10 37 -94 -8 -391 143 -684 348 -338 236
-379 261 -424 261 -16 0 -30 -8 -37 -22z"/>
<path d="M1453 3670 c-48 -11 -96 -43 -120 -80 -42 -61 -22 -192 49 -335 66
-129 133 -204 298 -331 58 -45 128 -108 157 -140 106 -119 111 -124 127 -118
38 15 3 127 -77 243 -16 24 -92 109 -168 188 -148 155 -212 240 -230 306 -20
74 10 190 63 244 l32 33 -50 -1 c-27 -1 -63 -4 -81 -9z"/>
<path d="M1680 3667 c-45 -23 -54 -58 -42 -165 14 -116 39 -171 124 -267 97
-110 148 -200 148 -261 0 -13 4 -24 9 -24 14 0 53 112 58 170 6 67 -7 101 -74
192 -61 81 -90 147 -110 247 -23 117 -48 141 -113 108z"/>
<path d="M2803 3493 c-22 -8 -14 -68 13 -109 64 -96 284 -298 505 -464 161
-121 282 -185 366 -195 60 -7 103 4 103 26 0 22 -86 100 -215 194 -226 165
-483 357 -600 448 -107 85 -148 108 -172 100z"/>
<path d="M2700 3349 c-63 -69 -51 -100 142 -365 251 -344 386 -497 481 -546
46 -23 147 -31 154 -12 17 48 -683 954 -736 954 -7 0 -25 -14 -41 -31z"/>
<path d="M2182 3201 c-70 -70 -112 -138 -112 -182 0 -36 32 -82 73 -104 20
-10 39 -17 42 -14 2 3 -5 33 -16 67 -23 68 -20 104 6 82 8 -7 20 -31 27 -53
13 -43 69 -107 93 -107 19 0 19 -1 -6 89 -23 82 -28 168 -15 244 12 67 -8 63
-92 -22z"/>
<path d="M2540 3245 c-16 -20 -1 -63 132 -375 209 -490 313 -675 399 -710 62
-26 61 15 -3 205 -92 275 -332 722 -462 863 -33 35 -47 39 -66 17z"/>
<path d="M2397 3194 c-15 -15 -6 -84 27 -220 44 -180 85 -389 136 -694 42
-258 55 -316 70 -325 17 -11 60 47 78 104 21 69 23 298 3 411 -39 222 -121
494 -194 641 -40 80 -44 84 -77 87 -20 2 -39 0 -43 -4z"/>
</g>
</svg>
